<svg width="32" height="32" viewBox="0 0 32 32" fill="none" xmlns="http://www.w3.org/2000/svg">
<g clip-path="url(#clip0_6142_7368)">
<path d="M19.4649 29.2822V30.0928C19.4649 30.164 19.4611 30.2352 19.4535 30.3045C19.348 31.2582 18.5393 32.0001 17.5577 32.0001H14.6331C13.6515 32.0001 12.8428 31.2582 12.7373 30.3045C12.7297 30.2352 12.7259 30.164 12.7259 30.0928V29.2822C12.9783 29.3948 13.258 29.4571 13.5524 29.4571H18.6384C18.9328 29.4571 19.2125 29.3948 19.4649 29.2822Z" fill="#50758D"/>
<path d="M16 4.16825C15.9374 4.16825 15.8754 4.15593 15.8175 4.13197C15.7597 4.10801 15.7071 4.07289 15.6628 4.02861C15.6186 3.98433 15.5834 3.93176 15.5595 3.87391C15.5355 3.81605 15.5232 3.75404 15.5232 3.69142V0.476821C15.5232 0.213425 15.7366 0 16 0C16.2634 0 16.4769 0.213425 16.4769 0.476821V3.69142C16.4769 3.75404 16.4645 3.81605 16.4406 3.8739C16.4166 3.93175 16.3815 3.98431 16.3372 4.02859C16.2929 4.07287 16.2404 4.10799 16.1825 4.13195C16.1247 4.15591 16.0626 4.16825 16 4.16825ZM7.44102 7.71357C7.37839 7.71365 7.31636 7.70136 7.25849 7.6774C7.20062 7.65344 7.14806 7.61829 7.10381 7.57396L4.83071 5.30079C4.74128 5.21137 4.69105 5.09008 4.69105 4.96362C4.69105 4.83715 4.74128 4.71586 4.83071 4.62644C4.92013 4.53701 5.04142 4.48678 5.16789 4.48678C5.29435 4.48678 5.41564 4.53701 5.50506 4.62644L7.77817 6.89961C7.84484 6.96629 7.89025 7.05125 7.90864 7.14374C7.92704 7.23623 7.9176 7.3321 7.88151 7.41922C7.84542 7.50634 7.78431 7.58081 7.70591 7.6332C7.6275 7.6856 7.53532 7.71357 7.44102 7.71357ZM3.89576 16.2725H0.681091C0.417695 16.2725 0.204269 16.0591 0.204269 15.7957C0.204269 15.5323 0.417695 15.3189 0.681091 15.3189H3.89569C4.15909 15.3189 4.37252 15.5323 4.37252 15.7957C4.37252 16.0591 4.15909 16.2725 3.89576 16.2725ZM5.16792 27.1046C5.07361 27.1046 4.98142 27.0767 4.90301 27.0243C4.82459 26.9719 4.76347 26.8974 4.72738 26.8103C4.69128 26.7232 4.68183 26.6273 4.70023 26.5348C4.71862 26.4423 4.76403 26.3574 4.83071 26.2907L7.10381 24.0176C7.14809 23.9733 7.20066 23.9382 7.25851 23.9142C7.31636 23.8902 7.37837 23.8779 7.44099 23.8779C7.50361 23.8779 7.56562 23.8902 7.62347 23.9142C7.68132 23.9382 7.73389 23.9733 7.77817 24.0176C7.82244 24.0618 7.85757 24.1144 7.88153 24.1723C7.9055 24.2301 7.91783 24.2921 7.91783 24.3547C7.91783 24.4174 7.9055 24.4794 7.88153 24.5372C7.85757 24.5951 7.82244 24.6476 7.77817 24.6919L5.50506 26.965C5.46083 27.0093 5.40827 27.0445 5.35042 27.0685C5.29256 27.0924 5.23054 27.1047 5.16792 27.1046ZM26.8321 27.1046C26.7694 27.1047 26.7074 27.0924 26.6496 27.0685C26.5917 27.0445 26.5391 27.0093 26.4949 26.965L24.2218 24.6919C24.1323 24.6025 24.0821 24.4812 24.0821 24.3547C24.0821 24.2283 24.1323 24.107 24.2218 24.0176C24.3112 23.9281 24.4325 23.8779 24.5589 23.8779C24.6854 23.8779 24.8067 23.9281 24.8961 24.0176L27.1692 26.2907C27.2359 26.3573 27.2813 26.4423 27.2997 26.5348C27.3181 26.6273 27.3087 26.7232 27.2726 26.8103C27.2365 26.8974 27.1754 26.9719 27.097 27.0243C27.0186 27.0767 26.9264 27.1046 26.8321 27.1046ZM31.3189 16.2725H28.1043C27.8409 16.2725 27.6275 16.0591 27.6275 15.7957C27.6275 15.5323 27.8409 15.3189 28.1043 15.3189H31.3189C31.5823 15.3189 31.7957 15.5323 31.7957 15.7957C31.7957 16.0591 31.5822 16.2725 31.3189 16.2725ZM24.559 7.71357C24.4647 7.71358 24.3725 7.68562 24.2941 7.63323C24.2156 7.58084 24.1545 7.50637 24.1184 7.41925C24.0823 7.33212 24.0729 7.23625 24.0913 7.14375C24.1097 7.05126 24.1551 6.9663 24.2218 6.89961L26.4949 4.62644C26.5392 4.58216 26.5917 4.54704 26.6496 4.52307C26.7074 4.49911 26.7694 4.48678 26.832 4.48678C26.8947 4.48678 26.9567 4.49911 27.0145 4.52307C27.0724 4.54704 27.1249 4.58216 27.1692 4.62644C27.2135 4.67072 27.2486 4.72329 27.2726 4.78114C27.2966 4.83899 27.3089 4.901 27.3089 4.96362C27.3089 5.02624 27.2966 5.08824 27.2726 5.14609C27.2486 5.20395 27.2135 5.25651 27.1692 5.30079L24.8961 7.57396C24.8519 7.61829 24.7993 7.65345 24.7415 7.67741C24.6836 7.70136 24.6216 7.71366 24.559 7.71357Z" fill="#FFE7C9"/>
<path d="M16.0954 28.8213C16.0954 28.8213 12.9783 29.3947 12.7259 29.2822V30.0928C12.7259 30.164 12.7297 30.2352 12.7373 30.3045C12.8428 31.2582 13.6515 32.0001 14.6331 32.0001H15.4596C14.6303 32.0001 13.9245 31.4704 13.6618 30.7311C13.6174 30.606 13.7084 30.4743 13.8411 30.4743H18.6384C18.9284 30.4743 19.2043 30.4139 19.4535 30.3045C19.4611 30.2352 19.4649 30.164 19.4649 30.0928V29.2822C19.2125 29.3947 16.0954 28.8213 16.0954 28.8213Z" fill="#2B597F"/>
<path d="M20.6729 27.4228C20.6729 28.2518 20.1764 28.9658 19.4649 29.2824C19.2048 29.3981 18.9232 29.4577 18.6384 29.4572H13.5523C13.258 29.4572 12.9783 29.3949 12.7259 29.2824C12.0144 28.9658 11.5179 28.2518 11.5179 27.4228C11.5179 27.4228 11.488 24.4512 11.4823 24.3737V24.3711L16.0954 23.7354L20.6557 24.3711L20.6729 27.4228Z" fill="#50758D"/>
<path d="M14.6331 29.4572H13.5523C13.258 29.4572 12.9783 29.3949 12.7259 29.2824C12.0144 28.9657 11.5179 28.2518 11.5179 27.4228C11.5179 27.4228 11.488 24.4512 11.4823 24.3736V24.3711H12.5631V24.3736C12.5688 24.4512 12.5987 27.4228 12.5987 27.4228C12.5987 28.2518 13.0952 28.9657 13.8067 29.2824C14.0668 29.3981 14.3484 29.4577 14.6331 29.4572ZM20.6729 27.391H19.0517C18.7885 27.391 18.5749 27.1773 18.5749 26.9141C18.5749 26.6509 18.7885 26.4373 19.0517 26.4373H20.6678L20.6703 26.9141L20.6729 27.391Z" fill="#2B597F"/>
<path d="M17.3033 26.9143C17.3033 27.1775 17.0897 27.3911 16.8265 27.3911H11.5173L11.5065 26.4375H16.8265C17.0897 26.4375 17.3033 26.6511 17.3033 26.9143Z" fill="#2B597F"/>
<path d="M16.0083 5.75411H16.0081L16.0083 5.75391C11.0982 5.67839 6.96909 9.95783 7.0574 14.8322C7.0574 17.3186 8.0422 19.5724 9.63796 21.212C10.5783 22.179 11.392 23.0729 11.4823 24.3711L20.6557 24.3864C20.7072 23.05 21.4669 22.1472 22.4136 21.1586C23.9788 19.5241 24.9427 17.2925 24.9427 14.8322C24.9426 9.82107 20.9437 5.75856 16.0083 5.75411Z" fill="#FAD207"/>
<path d="M20.6557 24.3843V24.3862L11.4822 24.3709C11.392 23.0727 10.5782 22.1788 9.6379 21.2118C8.04213 19.5722 7.05734 17.3184 7.05734 14.832C6.96897 9.95758 11.0982 5.67826 16.0082 5.75392C16.1665 5.75392 16.3242 5.75837 16.4806 5.76663C11.8427 6.03556 8.05358 10.1604 8.13813 14.832C8.13813 17.3184 9.12293 19.5722 10.7187 21.2118C11.659 22.1788 12.4728 23.0727 12.563 24.3709L20.6557 24.3843Z" fill="#FAA515"/>
<path d="M16.2245 19.3757C16.1265 19.502 16.0008 19.6042 15.8572 19.6745C15.7136 19.7449 15.5558 19.7814 15.3959 19.7814C15.2493 19.7813 15.1042 19.7506 14.9702 19.691C14.8362 19.6315 14.7161 19.5445 14.6178 19.4357L11.6297 16.1298C11.2412 15.7 11.2747 15.0367 11.7046 14.6482C12.1343 14.2596 12.7976 14.2931 13.1862 14.723L15.3351 17.1004L18.7636 12.685C19.1188 12.2274 19.7779 12.1445 20.2354 12.4998C20.693 12.8551 20.7759 13.5141 20.4206 13.9717L16.2245 19.3757Z" fill="#FAA515"/>
</g>
<defs>
<clipPath id="clip0_6142_7368">
<rect width="32" height="32" fill="white"/>
</clipPath>
</defs>
</svg>
