<svg width="18" height="32" viewBox="0 0 18 32" fill="none" xmlns="http://www.w3.org/2000/svg">
<path d="M5.17481 18.0664C5.04921 18.0664 2.41441 18.0672 1.19921 18.066C0.573605 18.0656 0.350405 17.8408 0.350405 17.2112C0.349405 15.594 0.349405 13.9768 0.350405 12.3596C0.350805 11.738 0.586805 11.5008 1.20441 11.5004C2.41961 11.4996 5.04001 11.5 5.17481 11.5V7.9792C5.17561 6.3896 5.45921 4.868 6.26681 3.4748C7.09361 2.0488 8.29681 1.072 9.83881 0.507203C10.8264 0.145203 11.8516 0.000802679 12.8996 2.67869e-06C14.2108 -0.000797321 15.522 0.000402666 16.8336 0.00280267C17.3972 0.00360267 17.6472 0.252803 17.6484 0.820403C17.6508 2.3416 17.6508 3.8628 17.6484 5.3836C17.6476 5.9572 17.408 6.1876 16.8316 6.194C15.7568 6.2056 14.6812 6.1984 13.6076 6.2416C12.5232 6.2416 11.9528 6.7712 11.9528 7.8936C11.9268 9.0808 11.942 10.2692 11.942 11.4996C12.0436 11.4996 15.1296 11.4992 16.572 11.4996C17.2272 11.4996 17.4512 11.7248 17.4512 12.3836C17.4512 13.992 17.4508 15.6008 17.4496 17.2092C17.4492 17.8584 17.2388 18.0656 16.5796 18.066C15.1372 18.0668 12.0632 18.0664 11.9288 18.0664V31.0844C11.9288 31.7784 11.7104 31.9996 11.0256 31.9996H6.01641C5.41121 31.9996 5.17521 31.7644 5.17521 31.1592L5.17481 18.0664Z" fill="#3D6AD6"/>
</svg>
