<svg width="27" height="28" viewBox="0 0 27 28" fill="none" xmlns="http://www.w3.org/2000/svg">
<path d="M26.9375 6.5V21.5C26.9362 23.0743 26.3102 24.5838 25.197 25.697C24.0838 26.8102 22.5743 27.4362 21 27.4375H6C5.34044 27.4394 4.68533 27.3295 4.0625 27.1125C2.89485 26.7092 1.88202 25.9518 1.16505 24.9459C0.448091 23.9399 0.0626824 22.7353 0.0625 21.5V6.5C0.0638241 4.92568 0.689806 3.41623 1.80302 2.30302C2.91623 1.18981 4.42568 0.563824 6 0.5625H21C22.5743 0.563824 24.0838 1.18981 25.197 2.30302C26.3102 3.41623 26.9362 4.92568 26.9375 6.5Z" fill="#E1F5FE"/>
<path d="M16.9375 22.7499V27.4374H6C5.34044 27.4393 4.68533 27.3294 4.0625 27.1124C2.89485 26.7091 1.88202 25.9517 1.16505 24.9457C0.448091 23.9397 0.0626824 22.7352 0.0625 21.4999V18.0874L4.0125 15.4499C4.60287 15.0547 5.30162 14.8533 6.01171 14.8734C6.72181 14.8936 7.408 15.1344 7.975 15.5624L12.3375 18.8374L16.5625 21.9999C16.6797 22.0864 16.7748 22.1995 16.84 22.3299C16.9052 22.4602 16.9386 22.6041 16.9375 22.7499Z" fill="#62D8B6"/>
<path d="M9.28125 10.4063C11.0071 10.4063 12.4063 9.00714 12.4063 7.28125C12.4063 5.55536 11.0071 4.15625 9.28125 4.15625C7.55536 4.15625 6.15625 5.55536 6.15625 7.28125C6.15625 9.00714 7.55536 10.4063 9.28125 10.4063Z" fill="#FFDE76"/>
<path d="M26.9375 15.3001V21.5001C26.9362 23.0745 26.3102 24.5839 25.197 25.6971C24.0838 26.8103 22.5743 27.4363 21 27.4376H6C5.34044 27.4396 4.68533 27.3297 4.0625 27.1126L17.8125 13.3626C18.3204 12.8508 18.9769 12.5125 19.6885 12.3957C20.4 12.279 21.1302 12.3899 21.775 12.7126L26.9375 15.3001Z" fill="#4CC19D"/>
</svg>
