<svg width="30" height="30" viewBox="0 0 30 30" fill="none" xmlns="http://www.w3.org/2000/svg">
<g clip-path="url(#clip0_6158_8146)">
<path d="M28.0027 11.6565L19.8296 19.8296C17.1664 22.4927 12.8336 22.4927 10.1705 19.8296C7.50731 17.1665 7.50731 12.8336 10.1705 10.1705L18.3436 1.99736C21.0067 -0.665786 25.3396 -0.665786 28.0027 1.99736C30.6658 4.6605 30.6658 8.99333 28.0027 11.6565ZM13.1425 13.1425C12.1183 14.1667 12.1183 15.8335 13.1425 16.8576C14.1667 17.8818 15.8334 17.8818 16.8576 16.8576L25.0307 8.68449C26.0549 7.66033 26.0549 5.99357 25.0307 4.96941C24.0065 3.94525 22.3398 3.94525 21.3156 4.96941L13.1425 13.1425Z" fill="#AFB9D2"/>
<path d="M12.4006 21.3152L8.68443 25.0314C7.66027 26.0555 5.99351 26.0555 4.96935 25.0314C3.94519 24.0072 3.94519 22.3405 4.96935 21.3163L13.1425 13.1432C14.1666 12.119 15.8334 12.119 16.8576 13.1432C17.8817 14.1673 17.8817 15.8341 16.8576 16.8583L21.3145 12.4013C20.9726 11.5667 20.4678 10.8086 19.8296 10.1712C17.1665 7.50804 12.8336 7.50804 10.1705 10.1712L1.99736 18.3443C-0.665786 21.0075 -0.665786 25.3403 1.99736 28.0034C4.6605 30.6666 8.99333 30.6666 11.6565 28.0034L19.8296 19.8303C17.8245 21.8354 14.8734 22.3294 12.4006 21.3152Z" fill="#C7CFE2"/>
<path d="M9.19092 18.5801L12.409 15.3621C12.3001 14.5743 12.5381 13.747 13.1425 13.1426L8.68555 17.5996C8.824 17.9374 8.99598 18.2638 9.19092 18.5801Z" fill="#9EA6BE"/>
<path d="M17.591 14.6383C17.6999 15.4261 17.4618 16.2534 16.8574 16.8578L21.3144 12.4008C21.1759 12.0631 21.0028 11.7372 20.8082 11.4209L17.591 14.6383Z" fill="#B9C2D8"/>
</g>
<defs>
<clipPath id="clip0_6158_8146">
<rect width="30" height="30" fill="white"/>
</clipPath>
</defs>
</svg>
