<svg width="30" height="30" viewBox="0 0 30 30" fill="none" xmlns="http://www.w3.org/2000/svg">
<path d="M29.3739 1.99588L18.4044 9.92627L16.6044 11.2306C15.6509 11.9351 14.3493 11.9351 13.3957 11.2306L11.5957 9.92627L0.613098 2.0089C0.91415 1.58788 1.31161 1.24504 1.77226 1.00904C2.23291 0.773038 2.74336 0.650738 3.26094 0.65236H26.7392C27.2532 0.652813 27.7598 0.774756 28.2176 1.00824C28.6755 1.24172 29.0717 1.58014 29.3739 1.99588Z" fill="#FFD54F"/>
<path d="M0.613093 2.00912L11.5957 9.92648L0.952243 20.57C0.649617 20.2666 0.409754 19.9065 0.246366 19.5104C0.082979 19.1142 -0.000728661 18.6898 2.90701e-05 18.2613V3.91348C-0.00287472 3.22972 0.211835 2.56277 0.613093 2.00912ZM30 3.91348V18.2613C30.0008 18.6898 29.9171 19.1143 29.7537 19.5104C29.5903 19.9066 29.3505 20.2666 29.0479 20.57L18.4044 9.92654L29.3739 1.99609C29.7812 2.5524 30.0005 3.22404 30 3.91348Z" fill="#FFC107"/>
<path d="M19.5652 24.1306C18.6992 24.1306 18.2609 23.4784 18.2609 22.1741C18.2822 20.3516 16.8222 18.857 14.9998 18.8357C13.1773 18.8144 11.6827 20.2744 11.6614 22.0968C11.64 23.9193 13.1001 25.4139 14.9225 25.4352C15.405 25.4409 15.8829 25.3406 16.3224 25.1416C16.762 24.9426 17.1525 24.6495 17.4666 24.2832C17.6791 24.6474 17.9867 24.947 18.3563 25.1498C18.726 25.3527 19.1439 25.4512 19.5652 25.4349C22.1739 25.4349 22.1739 22.9802 22.1739 22.1741C22.174 18.2121 18.9622 15.0001 15.0002 15C11.0382 14.9999 7.82623 18.2118 7.82611 22.1738C7.82605 26.1358 11.0379 29.3478 14.9999 29.3479C16.8613 29.3479 18.6499 28.6244 19.9878 27.3302C20.2468 27.0781 20.2523 26.6638 20.0003 26.4048C19.7481 26.1458 19.3338 26.1403 19.0748 26.3924C16.7416 28.6428 13.0258 28.5757 10.7754 26.2425C8.52496 23.9093 8.59209 20.1935 10.9253 17.943C13.2585 15.6926 16.9743 15.7597 19.2247 18.093C20.2815 19.1886 20.8713 20.6519 20.8696 22.1741C20.8696 23.6363 20.5409 24.1306 19.5652 24.1306ZM15.0001 24.1306C13.9195 24.1306 13.0435 23.2546 13.0435 22.1741C13.0435 21.0935 13.9195 20.2176 15.0001 20.2176C16.0806 20.2176 16.9566 21.0935 16.9566 22.1741C16.9566 23.2546 16.0806 24.1306 15.0001 24.1306Z" fill="#455A64"/>
<path d="M18.4044 9.92578L16.6044 11.2301C15.6508 11.9346 14.3493 11.9346 13.3957 11.2301L11.5957 9.92578L0.95224 20.5693C1.25562 20.8719 1.61568 21.1117 2.01182 21.2751C2.40796 21.4385 2.83242 21.5222 3.26093 21.5214H6.55437C6.90722 16.8574 10.9741 13.3624 15.6382 13.7153C19.8117 14.031 23.1287 17.348 23.4444 21.5214H26.7392C27.1677 21.5222 27.5921 21.4385 27.9883 21.2751C28.3844 21.1117 28.7445 20.8719 29.0479 20.5693L18.4044 9.92578Z" fill="#FFA000"/>
</svg>
