<svg width="31" height="30" viewBox="0 0 31 30" fill="none" xmlns="http://www.w3.org/2000/svg">
<path fill-rule="evenodd" clip-rule="evenodd" d="M8.18739 0H18.2174L26.7181 8.86058V26.0945C26.7181 28.2534 24.9715 30 22.8201 30H8.18739C6.02848 30 4.28186 28.2534 4.28186 26.0945V3.90553C4.28182 1.74662 6.02844 0 8.18739 0Z" fill="#E5252A"/>
<path fill-rule="evenodd" clip-rule="evenodd" d="M18.2099 0V8.79311H26.7182L18.2099 0Z" fill="black"/>
<path d="M8.62219 22.3841V16.9043H10.9535C11.5308 16.9043 11.988 17.0617 12.3329 17.3841C12.6777 17.6989 12.8501 18.1262 12.8501 18.6584C12.8501 19.1906 12.6777 19.6179 12.3329 19.9328C11.988 20.2551 11.5308 20.4125 10.9535 20.4125H10.024V22.3841H8.62219ZM10.024 19.2207H10.7961C11.006 19.2207 11.1709 19.1757 11.2834 19.0708C11.3958 18.9733 11.4558 18.8384 11.4558 18.6585C11.4558 18.4786 11.3958 18.3436 11.2834 18.2462C11.171 18.1412 11.006 18.0963 10.7961 18.0963H10.024V19.2207ZM13.4273 22.3841V16.9043H15.3688C15.7511 16.9043 16.111 16.9568 16.4483 17.0692C16.7856 17.1816 17.093 17.3391 17.3628 17.5565C17.6327 17.7664 17.8501 18.0512 18.0075 18.4111C18.1574 18.7709 18.2399 19.1832 18.2399 19.6479C18.2399 20.1052 18.1574 20.5175 18.0075 20.8773C17.8501 21.2371 17.6327 21.522 17.3628 21.7319C17.0929 21.9493 16.7856 22.1067 16.4483 22.2191C16.111 22.3316 15.7511 22.3841 15.3688 22.3841H13.4273ZM14.7991 21.1922H15.2039C15.4213 21.1922 15.6237 21.1697 15.8111 21.1172C15.991 21.0647 16.1634 20.9823 16.3283 20.8698C16.4858 20.7574 16.6132 20.5999 16.7031 20.3901C16.7931 20.1802 16.8381 19.9328 16.8381 19.6479C16.8381 19.3556 16.7931 19.1082 16.7031 18.8983C16.6132 18.6884 16.4858 18.531 16.3283 18.4186C16.1634 18.3061 15.991 18.2237 15.8111 18.1712C15.6237 18.1187 15.4213 18.0962 15.2039 18.0962H14.7991V21.1922ZM18.9445 22.3841V16.9043H22.8426V18.0962H20.3463V18.9733H22.3403V20.1577H20.3463V22.3841H18.9445Z" fill="white"/>
</svg>
