<svg width="20" height="20" viewBox="0 0 20 20" fill="none" xmlns="http://www.w3.org/2000/svg">
<path d="M15 6.66699C15 7.58747 14.2538 8.33366 13.3333 8.33366C12.4129 8.33366 11.6667 7.58747 11.6667 6.66699C11.6667 5.74652 12.4129 5.00033 13.3333 5.00033C14.2538 5.00033 15 5.74652 15 6.66699Z" fill="#0461A6"/>
<path fill-rule="evenodd" clip-rule="evenodd" d="M9.95218 1.04199H10.0478C11.9715 1.04198 13.479 1.04197 14.6552 1.20011C15.8592 1.36198 16.8092 1.69976 17.5549 2.44544C18.3006 3.19111 18.6383 4.14113 18.8002 5.34508C18.9584 6.52132 18.9583 8.02885 18.9583 9.95252V10.0261C18.9583 11.6167 18.9583 12.9189 18.872 13.9791C18.7851 15.0445 18.6072 15.9348 18.2091 16.6743C18.0334 17.0004 17.8176 17.2925 17.5549 17.5552C16.8092 18.3009 15.8592 18.6387 14.6552 18.8005C13.479 18.9587 11.9715 18.9587 10.0478 18.9587H9.95219C8.02852 18.9587 6.52099 18.9587 5.34475 18.8005C4.14081 18.6387 3.19079 18.3009 2.44511 17.5552C1.78405 16.8941 1.44266 16.0714 1.26112 15.0507C1.08279 14.048 1.05017 12.8006 1.04339 11.2516C1.04166 10.8575 1.04166 10.4408 1.04166 10.0012V9.95251C1.04165 8.02886 1.04165 6.52132 1.19979 5.34508C1.36165 4.14113 1.69944 3.19111 2.44511 2.44544C3.19079 1.69976 4.14081 1.36198 5.34475 1.20011C6.52099 1.04197 8.02853 1.04198 9.95218 1.04199ZM5.51131 2.43897C4.44598 2.5822 3.80371 2.85461 3.32899 3.32932C2.85428 3.80404 2.58187 4.4463 2.43864 5.51164C2.29299 6.59496 2.29166 8.01847 2.29166 10.0003C2.29166 10.2424 2.29167 10.4765 2.29195 10.7032L3.12623 9.97325C3.88562 9.30879 5.03014 9.3469 5.74365 10.0604L9.31842 13.6352C9.89111 14.2079 10.7926 14.286 11.4552 13.8203L11.7037 13.6456C12.6573 12.9755 13.9474 13.0531 14.8136 13.8328L17.1723 15.9556C17.4098 15.457 17.5508 14.8018 17.6261 13.8776C17.7079 12.8739 17.7083 11.6219 17.7083 10.0003C17.7083 8.01847 17.707 6.59496 17.5614 5.51164C17.4181 4.4463 17.1457 3.80404 16.671 3.32932C16.1963 2.85461 15.554 2.5822 14.4887 2.43897C13.4054 2.29332 11.9819 2.29199 10 2.29199C8.01814 2.29199 6.59463 2.29332 5.51131 2.43897Z" fill="#0461A6"/>
</svg>