<svg width="32" height="32" viewBox="0 0 32 32" fill="none" xmlns="http://www.w3.org/2000/svg">
<rect width="32" height="32" rx="8" fill="#FFF9E6"/>
<g clip-path="url(#clip0_6145_7488)">
<path d="M25.9478 13.2817C25.8839 13.0836 25.763 12.9086 25.6003 12.7786C25.4376 12.6486 25.2402 12.5694 25.0328 12.5509L19.2602 12.0267L16.9776 6.68396C16.8093 6.29243 16.426 6.03906 16.0001 6.03906C15.5742 6.03906 15.1909 6.29247 15.0226 6.68494L12.74 12.0267L6.96651 12.5509C6.75932 12.5698 6.56226 12.6492 6.39976 12.7791C6.23726 12.9091 6.11646 13.0838 6.05234 13.2817C5.92066 13.6868 6.04227 14.1309 6.36317 14.411L10.7266 18.2376L9.43989 23.9053C9.34575 24.3221 9.50747 24.7529 9.85326 25.0028C10.0391 25.1371 10.2566 25.2054 10.4758 25.2054C10.6649 25.2054 10.8524 25.1545 11.0208 25.0538L16.0001 22.0778L20.9776 25.0538C21.3419 25.2729 21.801 25.2529 22.146 25.0028C22.3149 24.8805 22.4442 24.7113 22.5177 24.5162C22.5912 24.3211 22.6057 24.1086 22.5594 23.9053L21.2728 18.2376L25.6361 14.4117C25.7931 14.2746 25.9063 14.0945 25.9617 13.8936C26.0171 13.6927 26.0123 13.4799 25.9478 13.2817Z" fill="#FFC107"/>
</g>
<defs>
<clipPath id="clip0_6145_7488">
<rect width="20" height="20" fill="white" transform="translate(6 6)"/>
</clipPath>
</defs>
</svg>
