<svg width="57" height="56" viewBox="0 0 57 56" fill="none" xmlns="http://www.w3.org/2000/svg">
<path d="M36.645 8.04237C30.6264 7.9167 24.4159 11.3692 22.7161 19.1405C15.7848 16.7793 9.528 21.4422 10.1762 28.896C8.34856 29.634 6.78361 30.902 5.68271 32.5368C4.58181 34.1717 3.99533 36.0986 3.99876 38.0695C3.99876 43.5525 8.41686 47.9639 13.8998 47.9639H25.9239L25.9107 36.6806L23.0931 37.7058C21.0428 38.5854 19.5348 36.006 21.2875 34.3988L26.625 29.2201C27.8419 28.0032 29.297 28.142 30.3751 29.2201L35.7125 34.4054C37.4652 36.006 35.9506 38.5854 33.9069 37.7058L31.0893 36.6806V47.9639H43.0936C48.5765 47.9639 52.988 43.5525 52.988 38.0695C52.988 34.035 50.5938 30.5826 47.1479 29.0415C53.828 16.0121 45.4415 8.21433 36.645 8.04237Z" fill="#75B5FF"/>
<path d="M36.645 8.03613C36.3143 8.03613 35.944 8.04275 35.6067 8.05597C27.9213 20.1727 39.7999 29.0353 47.1545 29.0353C53.8346 16.0059 45.4415 8.21471 36.645 8.03613Z" fill="#488BFF"/>
</svg>
