<svg width="31" height="30" viewBox="0 0 31 30" fill="none" xmlns="http://www.w3.org/2000/svg">
<g clip-path="url(#clip0_6158_8134)">
<path d="M15.5037 0H15.4963C7.22563 0 0.5 6.7275 0.5 15C0.5 18.2812 1.5575 21.3225 3.35562 23.7919L1.48625 29.3644L7.25187 27.5213C9.62375 29.0925 12.4531 30 15.5037 30C23.7744 30 30.5 23.2706 30.5 15C30.5 6.72938 23.7744 0 15.5037 0Z" fill="#4CAF50"/>
<path d="M24.2318 21.1816C23.87 22.2035 22.4337 23.051 21.2881 23.2985C20.5043 23.4654 19.4806 23.5985 16.0343 22.1697C11.6262 20.3435 8.78747 15.8641 8.56622 15.5735C8.35435 15.2829 6.78497 13.2016 6.78497 11.0491C6.78497 8.8966 7.8781 7.84848 8.31872 7.39848C8.6806 7.0291 9.27872 6.86035 9.85247 6.86035C10.0381 6.86035 10.205 6.86973 10.355 6.87723C10.7956 6.89598 11.0168 6.92223 11.3075 7.61785C11.6693 8.48973 12.5506 10.6422 12.6556 10.8635C12.7625 11.0847 12.8693 11.3847 12.7193 11.6754C12.5787 11.9754 12.455 12.1085 12.2337 12.3635C12.0125 12.6185 11.8025 12.8135 11.5812 13.0872C11.3787 13.3254 11.15 13.5804 11.405 14.021C11.66 14.4522 12.5412 15.8904 13.8387 17.0454C15.5131 18.536 16.8706 19.0122 17.3562 19.2147C17.7181 19.3647 18.1493 19.3291 18.4137 19.0479C18.7493 18.686 19.1637 18.086 19.5856 17.4954C19.8856 17.0716 20.2643 17.0191 20.6618 17.1691C21.0668 17.3097 23.21 18.3691 23.6506 18.5885C24.0912 18.8097 24.3818 18.9147 24.4887 19.1004C24.5937 19.286 24.5937 20.1579 24.2318 21.1816Z" fill="#FAFAFA"/>
</g>
<defs>
<clipPath id="clip0_6158_8134">
<rect width="30" height="30" fill="white" transform="translate(0.5)"/>
</clipPath>
</defs>
</svg>
