<svg width="32" height="32" viewBox="0 0 32 32" fill="none" xmlns="http://www.w3.org/2000/svg">
<path d="M16 11.9997C15.8232 11.9997 15.6537 11.9294 15.5286 11.8044C15.4036 11.6794 15.3334 11.5098 15.3334 11.333V3.99967C15.3334 3.82286 15.4036 3.65329 15.5286 3.52827C15.6537 3.40325 15.8232 3.33301 16 3.33301C16.1769 3.33301 16.3464 3.40325 16.4714 3.52827C16.5965 3.65329 16.6667 3.82286 16.6667 3.99967V11.333C16.6667 11.5098 16.5965 11.6794 16.4714 11.8044C16.3464 11.9294 16.1769 11.9997 16 11.9997Z" fill="#AECEE8"/>
<path d="M29.3334 15.333H2.66669C1.56212 15.333 0.666687 16.2284 0.666687 17.333V21.9997C0.666687 23.1042 1.56212 23.9997 2.66669 23.9997H29.3334C30.4379 23.9997 31.3334 23.1042 31.3334 21.9997V17.333C31.3334 16.2284 30.4379 15.333 29.3334 15.333Z" fill="#AECEE8"/>
<path d="M30 21.9998H2.00002C1.48535 21.9998 1.02135 21.7998 0.666687 21.4805V21.9998C0.666687 22.5302 0.877401 23.0389 1.25247 23.414C1.62755 23.7891 2.13625 23.9998 2.66669 23.9998H29.3334C29.8638 23.9998 30.3725 23.7891 30.7476 23.414C31.1226 23.0389 31.3334 22.5302 31.3334 21.9998V21.4805C30.9689 21.8133 30.4936 21.9984 30 21.9998Z" fill="#7EAFD0"/>
<path d="M24 9.33301H8C5.79086 9.33301 4 11.1239 4 13.333V25.9997C4 28.2088 5.79086 29.9997 8 29.9997H24C26.2091 29.9997 28 28.2088 28 25.9997V13.333C28 11.1239 26.2091 9.33301 24 9.33301Z" fill="#EFF3F9"/>
<path d="M27.3333 27.9997H8.66667C7.95942 27.9997 7.28115 27.7188 6.78105 27.2187C6.28095 26.7186 6 26.0403 6 25.3331V10.6664C6 10.3744 6.03333 10.0904 6.09267 9.81641C5.45941 10.1597 4.93065 10.6677 4.56229 11.2867C4.19394 11.9057 3.99966 12.6127 4 13.3331V25.9997C4 27.0606 4.42143 28.078 5.17157 28.8282C5.92172 29.5783 6.93913 29.9997 8 29.9997H24C24.703 29.9996 25.3935 29.814 26.0018 29.4616C26.6101 29.1093 27.1147 28.6027 27.4647 27.9931C27.4207 27.9944 27.378 27.9997 27.3333 27.9997Z" fill="#CFE0F3"/>
<path d="M20.6667 19.3333C22.1394 19.3333 23.3333 18.1394 23.3333 16.6667C23.3333 15.1939 22.1394 14 20.6667 14C19.1939 14 18 15.1939 18 16.6667C18 18.1394 19.1939 19.3333 20.6667 19.3333Z" fill="#1761B2"/>
<path d="M20.6667 17.9997C21.4031 17.9997 22 17.4027 22 16.6663C22 15.93 21.4031 15.333 20.6667 15.333C19.9303 15.333 19.3334 15.93 19.3334 16.6663C19.3334 17.4027 19.9303 17.9997 20.6667 17.9997Z" fill="#0D3B8D"/>
<path d="M21.3334 16.6663C21.7015 16.6663 22 16.3679 22 15.9997C22 15.6315 21.7015 15.333 21.3334 15.333C20.9652 15.333 20.6667 15.6315 20.6667 15.9997C20.6667 16.3679 20.9652 16.6663 21.3334 16.6663Z" fill="#EFF3F9"/>
<path d="M11.3334 19.3333C12.8061 19.3333 14 18.1394 14 16.6667C14 15.1939 12.8061 14 11.3334 14C9.86059 14 8.66669 15.1939 8.66669 16.6667C8.66669 18.1394 9.86059 19.3333 11.3334 19.3333Z" fill="#1761B2"/>
<path d="M11.3333 17.9997C12.0697 17.9997 12.6667 17.4027 12.6667 16.6663C12.6667 15.93 12.0697 15.333 11.3333 15.333C10.597 15.333 10 15.93 10 16.6663C10 17.4027 10.597 17.9997 11.3333 17.9997Z" fill="#0D3B8D"/>
<path d="M12 16.6663C12.3682 16.6663 12.6667 16.3679 12.6667 15.9997C12.6667 15.6315 12.3682 15.333 12 15.333C11.6319 15.333 11.3334 15.6315 11.3334 15.9997C11.3334 16.3679 11.6319 16.6663 12 16.6663Z" fill="#EFF3F9"/>
<path d="M16 24.6666C14.5 24.6666 13.012 24.3093 11.6954 23.6326C11.5439 23.5485 11.4311 23.4088 11.3807 23.2431C11.3304 23.0773 11.3465 22.8985 11.4256 22.7443C11.5048 22.5902 11.6407 22.4729 11.8048 22.4172C11.9688 22.3616 12.1481 22.3719 12.3047 22.446C14.5947 23.6233 17.4054 23.6233 19.6954 22.446C19.8514 22.3764 20.0281 22.3693 20.1891 22.4261C20.3502 22.4828 20.4835 22.5991 20.5615 22.751C20.6395 22.9029 20.6564 23.079 20.6086 23.2429C20.5608 23.4069 20.4521 23.5464 20.3047 23.6326C18.9718 24.3131 17.4965 24.6674 16 24.6666Z" fill="#AECEE8"/>
<path d="M16 5.99967C17.2887 5.99967 18.3334 4.95501 18.3334 3.66634C18.3334 2.37768 17.2887 1.33301 16 1.33301C14.7114 1.33301 13.6667 2.37768 13.6667 3.66634C13.6667 4.95501 14.7114 5.99967 16 5.99967Z" fill="#FF3B65"/>
<path d="M16.6667 4.66605C16.1363 4.66605 15.6275 4.45534 15.2525 4.08026C14.8774 3.70519 14.6667 3.19648 14.6667 2.66605C14.6667 2.25938 14.7894 1.88272 14.998 1.56738C14.6005 1.75569 14.2645 2.05277 14.0289 2.42419C13.7932 2.79562 13.6677 3.22619 13.6667 3.66605C13.6667 4.28489 13.9125 4.87838 14.3501 5.31597C14.7877 5.75355 15.3812 5.99938 16 5.99938C16.5964 5.9986 17.1696 5.76886 17.6015 5.3576C18.0333 4.94635 18.2908 4.38497 18.3207 3.78938C18.1375 4.05947 17.891 4.28059 17.6027 4.43341C17.3144 4.58623 16.993 4.6661 16.6667 4.66605Z" fill="#D82B50" fill-opacity="0.458824"/>
</svg>
