<svg width="20" height="20" viewBox="0 0 20 20" fill="none" xmlns="http://www.w3.org/2000/svg">
<path fill-rule="evenodd" clip-rule="evenodd" d="M16.9712 1.7706C16.6986 1.0769 15.7187 1.0769 15.4461 1.7706L15.0894 2.67827L14.1856 3.03608C13.4944 3.30966 13.4944 4.2896 14.1856 4.56319L15.0894 4.921L15.4461 5.82867C15.7187 6.52237 16.6986 6.52237 16.9712 5.82867L17.3279 4.921L18.2318 4.56319C18.9229 4.28961 18.9229 3.30967 18.2318 3.03608L17.3279 2.67827L16.9712 1.7706ZM16.2087 2.10857L16.5543 2.9881C16.6373 3.19942 16.8042 3.36722 17.0157 3.45093L17.8966 3.79964L17.0157 4.14834C16.8042 4.23206 16.6373 4.39985 16.5543 4.61117L16.2087 5.49071L15.8631 4.61117C15.78 4.39985 15.6131 4.23206 15.4017 4.14834L14.5208 3.79964L15.4017 3.45093C15.6132 3.36722 15.78 3.19942 15.8631 2.9881L16.2087 2.10857ZM13.7484 6.62267C13.4758 5.92897 12.4959 5.92897 12.2233 6.62267L12.0945 6.95039L11.7685 7.07947C11.0773 7.35306 11.0773 8.333 11.7685 8.60659L12.0945 8.73566L12.2233 9.06339C12.4959 9.75708 13.4758 9.75708 13.7484 9.06339L13.8772 8.73566L14.2033 8.60659C14.8944 8.333 14.8944 7.35306 14.2033 7.07947L13.8772 6.95039L13.7484 6.62267ZM12.9859 6.96064L13.1036 7.26022C13.1866 7.47154 13.3535 7.63934 13.565 7.72305L13.8681 7.84303L13.565 7.963C13.3535 8.04672 13.1866 8.21452 13.1036 8.42583L12.9859 8.72542L12.8682 8.42583C12.7851 8.21452 12.6182 8.04672 12.4068 7.963L12.1037 7.84303L12.4068 7.72305C12.6182 7.63934 12.7851 7.47154 12.8682 7.26022L12.9859 6.96064Z" fill="#E02227"/>
<path fill-rule="evenodd" clip-rule="evenodd" d="M9.18116 2.33497C5.30893 2.74384 2.29167 6.01972 2.29167 10.0003C2.29167 14.2575 5.74281 17.7087 10 17.7087C13.9806 17.7087 17.2565 14.6914 17.6654 10.8192C16.5598 12.2227 14.8439 13.1253 12.9167 13.1253C9.57995 13.1253 6.875 10.4204 6.875 7.08366C6.875 5.15648 7.77763 3.44057 9.18116 2.33497ZM1.04167 10.0003C1.04167 5.05277 5.05245 1.04199 10 1.04199C10.5972 1.04199 10.8962 1.51804 10.9474 1.89721C10.9966 2.26197 10.8618 2.72587 10.4425 2.97922C9.05221 3.81933 8.125 5.34351 8.125 7.08366C8.125 9.73002 10.2703 11.8753 12.9167 11.8753C14.6568 11.8753 16.181 10.9481 17.0211 9.5578C17.2745 9.13853 17.7384 9.0037 18.1031 9.05296C18.4823 9.10417 18.9583 9.40313 18.9583 10.0003C18.9583 14.9479 14.9476 18.9587 10 18.9587C5.05245 18.9587 1.04167 14.9479 1.04167 10.0003Z" fill="#E02227"/>
</svg>
