<svg width="60" height="60" viewBox="0 0 60 60" fill="none" xmlns="http://www.w3.org/2000/svg">
<path d="M24.4088 45.0001C24.3051 45.0004 24.2016 44.9916 24.0994 44.9738C23.6092 44.8921 23.1715 44.619 22.8825 44.2147C22.5935 43.8104 22.4768 43.3079 22.5581 42.8176L24.4331 31.5676C24.5147 31.077 24.7878 30.6389 25.1923 30.3497C25.5969 30.0605 26.0998 29.9438 26.5903 30.0254C27.0809 30.1069 27.519 30.38 27.8082 30.7846C28.0974 31.1891 28.2141 31.692 28.1325 32.1826L26.2575 43.4326C26.1847 43.8704 25.959 44.2682 25.6205 44.5552C25.282 44.8422 24.8526 44.9999 24.4088 45.0001ZM35.655 45.0001C35.2115 44.9994 34.7826 44.8416 34.4445 44.5546C34.1063 44.2676 33.8809 43.8701 33.8081 43.4326L31.9331 32.1826C31.8928 31.9397 31.9006 31.6912 31.9563 31.4513C32.0119 31.2115 32.1143 30.9849 32.2575 30.7846C32.5467 30.38 32.9848 30.1069 33.4753 30.0254C33.9659 29.9438 34.4688 30.0605 34.8733 30.3497C35.2779 30.6389 35.551 31.077 35.6325 31.5676L37.5075 42.8176C37.5888 43.3081 37.4719 43.8109 37.1825 44.2153C36.8931 44.6196 36.455 44.8925 35.9644 44.9738C35.8622 44.9916 35.7587 45.0004 35.655 45.0001Z" fill="#A44613"/>
<path d="M35.6569 22.5H24.4069C23.3714 22.5 22.5319 23.3395 22.5319 24.375V30C22.5319 31.0355 23.3714 31.875 24.4069 31.875H35.6569C36.6924 31.875 37.5319 31.0355 37.5319 30V24.375C37.5319 23.3395 36.6924 22.5 35.6569 22.5Z" fill="#FF8A3C"/>
<path d="M44.5144 18.525C44.2473 18.0263 43.8499 17.6094 43.3645 17.3188C42.879 17.0282 42.3239 16.8748 41.7581 16.875H17.7038C17.2086 16.875 16.7206 16.9928 16.2799 17.2185C15.8392 17.4442 15.4585 17.7715 15.1691 18.1733C14.8798 18.5751 14.6901 19.0399 14.6157 19.5294C14.5413 20.0189 14.5843 20.5191 14.7413 20.9888L16.065 24.9675C16.1891 25.3409 16.4275 25.6657 16.7466 25.8959C17.0656 26.1261 17.4491 26.25 17.8425 26.25H40.3425C40.6511 26.25 40.955 26.1739 41.2271 26.0284C41.4992 25.8828 41.7312 25.6723 41.9025 25.4156L44.3569 21.735C44.6716 21.2648 44.8524 20.7177 44.8799 20.1525C44.9073 19.5873 44.7803 19.0254 44.5125 18.5269L44.5144 18.525Z" fill="#D45C1E"/>
<path d="M54.3713 33.3824C54.3261 33.138 54.2327 32.9051 54.0967 32.6972C53.9607 32.4893 53.7847 32.3104 53.5789 32.1711C53.3732 32.0318 53.1418 31.9347 52.8982 31.8856C52.6546 31.8365 52.4037 31.8363 52.1601 31.885C51.9164 31.9337 51.6848 32.0304 51.4789 32.1693C51.2729 32.3083 51.0966 32.4869 50.9602 32.6946C50.8238 32.9023 50.7301 33.135 50.6845 33.3793C50.6389 33.6235 50.6422 33.8744 50.6944 34.1174L52.5694 43.4924C52.6543 43.9173 52.8838 44.2996 53.2188 44.5745C53.5538 44.8493 53.9736 44.9996 54.4069 44.9999C54.531 44.9999 54.6547 44.9873 54.7763 44.9624C55.2635 44.8646 55.6919 44.5775 55.9676 44.1641C56.2432 43.7506 56.3434 43.2447 56.2463 42.7574L54.3713 33.3824ZM43.5263 31.9124C43.2848 31.8627 43.0358 31.8614 42.7938 31.9086C42.5517 31.9557 42.3214 32.0504 42.1162 32.1871C41.911 32.3238 41.7349 32.4998 41.5982 32.7049C41.4614 32.9101 41.3666 33.1404 41.3194 33.3824L39.4444 42.7574C39.3472 43.2447 39.4475 43.7506 39.7231 44.1641C39.9987 44.5775 40.4272 44.8646 40.9144 44.9624C41.0359 44.9874 41.1597 45 41.2838 44.9999C41.7171 44.9996 42.1369 44.8493 42.4719 44.5745C42.8069 44.2996 43.0364 43.9173 43.1213 43.4924L44.9963 34.1174C45.0934 33.6301 44.9932 33.1241 44.7176 32.7107C44.4419 32.2972 44.0135 32.0101 43.5263 31.9124Z" fill="#A44613"/>
<path d="M56.2819 16.875V33.75C56.2804 34.2468 56.0824 34.7229 55.731 35.0742C55.3797 35.4255 54.9037 35.6235 54.4069 35.625H41.2819C40.785 35.6235 40.309 35.4255 39.9577 35.0742C39.6064 34.7229 39.4083 34.2468 39.4069 33.75V31.8C39.4089 31.1877 39.5102 30.5798 39.7069 30C40.0856 28.9081 40.7942 27.9608 41.7347 27.289C42.6752 26.6172 43.8011 26.2542 44.9569 26.25H52.5319V16.875C52.5319 16.3777 52.7294 15.9008 53.081 15.5492C53.4327 15.1975 53.9096 15 54.4069 15C54.9041 15 55.3811 15.1975 55.7327 15.5492C56.0843 15.9008 56.2819 16.3777 56.2819 16.875Z" fill="#FF8A3C"/>
<path d="M56.2819 30V33.75C56.2804 34.2468 56.0824 34.7229 55.731 35.0742C55.3797 35.4255 54.9037 35.6235 54.4069 35.625H41.2819C40.785 35.6235 40.309 35.4255 39.9577 35.0742C39.6064 34.7229 39.4083 34.2468 39.4069 33.75V31.8C39.4089 31.1877 39.5102 30.5798 39.7069 30H56.2819Z" fill="#F47F31"/>
<path d="M5.62876 33.3823C5.73222 32.9006 6.02108 32.479 6.4329 32.2086C6.84472 31.9383 7.3464 31.8408 7.82949 31.9374C8.31258 32.034 8.73825 32.3168 9.01448 32.7247C9.29071 33.1326 9.3953 33.6328 9.30564 34.1173L7.43064 43.4923C7.34571 43.9172 7.11625 44.2995 6.78126 44.5744C6.44627 44.8492 6.02643 44.9995 5.59314 44.9998C5.46906 44.9998 5.3453 44.9872 5.22376 44.9623C4.73657 44.8645 4.3081 44.5774 4.03247 44.164C3.75684 43.7505 3.6566 43.2446 3.75376 42.7573L5.62876 33.3823ZM16.4738 31.9123C16.7153 31.8626 16.9643 31.8613 17.2063 31.9084C17.4483 31.9556 17.6786 32.0503 17.8838 32.1869C18.089 32.3236 18.2651 32.4997 18.4019 32.7048C18.5387 32.91 18.6334 33.1403 18.6806 33.3823L20.5556 42.7573C20.6528 43.2446 20.5526 43.7505 20.2769 44.164C20.0013 44.5774 19.5728 44.8645 19.0856 44.9623C18.9641 44.9873 18.8403 44.9999 18.7163 44.9998C18.283 44.9995 17.8631 44.8492 17.5281 44.5744C17.1932 44.2995 16.9637 43.9172 16.8788 43.4923L15.0038 34.1173C14.9066 33.63 15.0068 33.124 15.2825 32.7106C15.5581 32.2971 15.9866 32.01 16.4738 31.9123Z" fill="#A44613"/>
<path d="M3.71814 16.875V33.75C3.71962 34.2468 3.91764 34.7229 4.26895 35.0742C4.62026 35.4255 5.09632 35.6235 5.59314 35.625H18.7181C19.215 35.6235 19.691 35.4255 20.0423 35.0742C20.3936 34.7229 20.5917 34.2468 20.5931 33.75V31.8C20.5911 31.1877 20.4898 30.5798 20.2931 30C19.9144 28.9081 19.2058 27.9608 18.2653 27.289C17.3248 26.6172 16.1989 26.2542 15.0431 26.25H7.46814V16.875C7.46814 16.3777 7.2706 15.9008 6.91896 15.5492C6.56733 15.1975 6.09042 15 5.59314 15C5.09586 15 4.61895 15.1975 4.26731 15.5492C3.91568 15.9008 3.71814 16.3777 3.71814 16.875Z" fill="#FF8A3C"/>
<path d="M3.71814 30V33.75C3.71962 34.2468 3.91764 34.7229 4.26895 35.0742C4.62026 35.4255 5.09632 35.6235 5.59314 35.625H18.7181C19.215 35.6235 19.691 35.4255 20.0423 35.0742C20.3936 34.7229 20.5917 34.2468 20.5931 33.75V31.8C20.5911 31.1877 20.4898 30.5798 20.2931 30H3.71814Z" fill="#F47F31"/>
</svg>
