<svg width="24" height="24" viewBox="0 0 24 24" fill="none" xmlns="http://www.w3.org/2000/svg">
<path fill-rule="evenodd" clip-rule="evenodd" d="M11.0214 2H12.9786C13.8144 1.99997 14.5113 1.99995 15.0646 2.07434C15.6486 2.15285 16.1759 2.32557 16.5996 2.74926C17.0233 3.17296 17.196 3.70021 17.2745 4.28421C17.3489 4.83749 17.3489 5.53444 17.3488 6.37024L17.3488 7.58144C17.8852 7.58187 18.3397 7.58596 18.7153 7.62417C19.1558 7.66898 19.5645 7.76639 19.9329 8.01252C20.2122 8.19916 20.452 8.43899 20.6386 8.71831C20.8848 9.08668 20.9822 9.49539 21.027 9.93583C21.0698 10.3566 21.0698 10.8764 21.0698 11.4992V20.6047H21.3023C21.6876 20.6047 22 20.917 22 21.3023C22 21.6876 21.6876 22 21.3023 22H2.69767C2.31236 22 2 21.6876 2 21.3023C2 20.917 2.31236 20.6047 2.69767 20.6047H2.93023L2.93023 11.4992C2.93022 10.8763 2.9302 10.3566 2.97301 9.93583C3.01781 9.49539 3.11522 9.08668 3.36136 8.71831C3.54799 8.43899 3.78782 8.19916 4.06715 8.01252C4.43551 7.76639 4.84423 7.66898 5.28467 7.62417C5.66031 7.58596 6.11482 7.58187 6.65116 7.58144L6.65116 6.37024C6.65113 5.53444 6.65111 4.83749 6.7255 4.28421C6.80401 3.70021 6.97673 3.17296 7.40042 2.74926C7.82412 2.32557 8.35137 2.15285 8.93537 2.07434C9.48865 1.99995 10.1856 1.99997 11.0214 2ZM6.65116 8.97684C6.10922 8.97744 5.72638 8.98179 5.42589 9.01236C5.09578 9.04594 4.94325 9.1053 4.84236 9.17271C4.71539 9.25755 4.60638 9.36656 4.52155 9.49352C4.45414 9.59441 4.39477 9.74694 4.36119 10.0771C4.32643 10.4188 4.32558 10.8671 4.32558 11.5349V20.6047H6.65116V8.97684ZM8.04651 20.6047H11.3023V18.5116C11.3023 18.1263 11.6147 17.814 12 17.814C12.3853 17.814 12.6977 18.1263 12.6977 18.5116V20.6047H15.9535V6.41861C15.9535 5.52185 15.952 4.91947 15.8916 4.47013C15.8339 4.04087 15.7341 3.85715 15.6129 3.73592C15.4917 3.6147 15.308 3.51496 14.8787 3.45724C14.4294 3.39683 13.827 3.39535 12.9302 3.39535H11.0698C10.173 3.39535 9.57063 3.39683 9.1213 3.45724C8.69203 3.51496 8.50831 3.6147 8.38709 3.73592C8.26586 3.85715 8.16612 4.04087 8.10841 4.47013C8.04799 4.91947 8.04651 5.52185 8.04651 6.41861V20.6047ZM17.3488 20.6047H19.6744V11.5349C19.6744 10.8671 19.6736 10.4188 19.6388 10.0771C19.6052 9.74694 19.5459 9.59441 19.4785 9.49352C19.3936 9.36656 19.2846 9.25755 19.1576 9.17271C19.0568 9.1053 18.9042 9.04594 18.5741 9.01236C18.2736 8.98179 17.8908 8.97744 17.3488 8.97684V20.6047ZM9.44186 5.48837C9.44186 5.10306 9.75422 4.7907 10.1395 4.7907H13.8605C14.2458 4.7907 14.5581 5.10306 14.5581 5.48837C14.5581 5.87369 14.2458 6.18605 13.8605 6.18605H10.1395C9.75422 6.18605 9.44186 5.87369 9.44186 5.48837ZM9.44186 8.27907C9.44186 7.89376 9.75422 7.5814 10.1395 7.5814H13.8605C14.2458 7.5814 14.5581 7.89376 14.5581 8.27907C14.5581 8.66439 14.2458 8.97675 13.8605 8.97675H10.1395C9.75422 8.97675 9.44186 8.66439 9.44186 8.27907ZM9.44186 11.0698C9.44186 10.6845 9.75422 10.3721 10.1395 10.3721H13.8605C14.2458 10.3721 14.5581 10.6845 14.5581 11.0698C14.5581 11.4551 14.2458 11.7674 13.8605 11.7674H10.1395C9.75422 11.7674 9.44186 11.4551 9.44186 11.0698ZM9.44186 13.8605C9.44186 13.4752 9.75422 13.1628 10.1395 13.1628H13.8605C14.2458 13.1628 14.5581 13.4752 14.5581 13.8605C14.5581 14.2458 14.2458 14.5581 13.8605 14.5581H10.1395C9.75422 14.5581 9.44186 14.2458 9.44186 13.8605Z" fill="#0461A6"/>
</svg>
