<svg width="24" height="24" viewBox="0 0 24 24" fill="none" xmlns="http://www.w3.org/2000/svg">
<path d="M9.62483 15.1602C9.31528 14.9308 8.87833 14.9957 8.64888 15.3053C8.41944 15.6148 8.48437 16.0518 8.79392 16.2812C9.69849 16.9517 10.8047 17.3486 12.0001 17.3486C13.1954 17.3486 14.3017 16.9517 15.2062 16.2812C15.5158 16.0518 15.5807 15.6148 15.3513 15.3053C15.1218 14.9957 14.6849 14.9308 14.3753 15.1602C13.6978 15.6624 12.88 15.9533 12.0001 15.9533C11.1202 15.9533 10.3024 15.6624 9.62483 15.1602Z" fill="#0461A6"/>
<path fill-rule="evenodd" clip-rule="evenodd" d="M12 2C11.3255 2 10.7101 2.18522 10.0365 2.49963C9.38448 2.80398 8.63044 3.25317 7.68542 3.81612L6.33137 4.62273C5.29033 5.24285 4.46079 5.737 3.8327 6.20953C3.18431 6.69733 2.69766 7.19963 2.38053 7.86114C2.06324 8.52297 1.97725 9.21563 2.00483 10.024C2.03153 10.8065 2.16842 11.7578 2.34006 12.9506L2.61202 14.8406C2.83284 16.3754 3.00808 17.5933 3.26988 18.5415C3.53975 19.519 3.92266 20.2948 4.61363 20.8898C5.30403 21.4843 6.13008 21.7502 7.14078 21.8769C8.12236 22 9.36075 22 10.9231 22H13.0769C14.6392 22 15.8776 22 16.8592 21.8769C17.8699 21.7502 18.696 21.4843 19.3864 20.8898C20.0773 20.2948 20.4602 19.519 20.7301 18.5416C20.9919 17.5934 21.1672 16.3754 21.388 14.8407L21.6599 12.9506C21.8316 11.7578 21.9685 10.8065 21.9952 10.024C22.0228 9.21563 21.9368 8.52297 21.6195 7.86114C21.3023 7.19963 20.8157 6.69733 20.1673 6.20953C19.5392 5.737 18.7097 5.24285 17.6686 4.62273L16.3146 3.81612C15.3696 3.25317 14.6155 2.80398 13.9635 2.49963C13.2899 2.18522 12.6745 2 12 2ZM8.36798 5.03368C9.35171 4.44769 10.0458 4.03517 10.6267 3.76403C11.1933 3.49957 11.6007 3.39535 12 3.39535C12.3993 3.39535 12.8067 3.49956 13.3733 3.76403C13.9542 4.03517 14.6483 4.44768 15.632 5.03368L16.9202 5.80107C18.0033 6.44626 18.7676 6.90264 19.3284 7.32456C19.8758 7.73639 20.1756 8.07716 20.3612 8.46434C20.5467 8.8512 20.6238 9.29616 20.6006 9.97646C20.5768 10.674 20.4517 11.5501 20.2731 12.7917L20.0138 14.5939C19.7845 16.1875 19.6206 17.3174 19.3851 18.1702C19.155 19.0036 18.878 19.4862 18.4759 19.8324C18.0732 20.1792 17.5512 20.3839 16.6856 20.4924C15.8009 20.6034 14.65 20.6047 13.0289 20.6047H10.9711C9.34999 20.6047 8.19912 20.6034 7.31441 20.4924C6.44879 20.3839 5.92678 20.1792 5.5241 19.8324C5.12199 19.4862 4.845 19.0036 4.6149 18.1702C4.37945 17.3174 4.21554 16.1875 3.98623 14.5939L3.72691 12.7917C3.54825 11.55 3.42317 10.674 3.39937 9.97645C3.37616 9.29616 3.45329 8.8512 3.63876 8.46434C3.82438 8.07716 4.12416 7.73639 4.67157 7.32456C5.23239 6.90264 5.99668 6.44626 7.07976 5.80107L8.36798 5.03368Z" fill="#0461A6"/>
</svg>
