<svg width="60" height="60" viewBox="0 0 60 60" fill="none" xmlns="http://www.w3.org/2000/svg">
<g clip-path="url(#clip0_6139_5075)">
<path d="M9.08215 12.1147V19.7968L33.4832 13.8563C27.3634 11.7197 15.2602 9.84912 9.08215 12.1147Z" fill="#DCE6EB"/>
<path d="M9.08215 8.9502V12.1143C13.7174 12.1814 18.7161 12.6428 23.8507 13.4309C24.4696 13.5258 24.5254 14.396 23.9244 14.5718C18.7508 16.0847 13.7255 17.8485 9.08215 19.7964V24.483H47.3834V15.8892C34.7316 11.7809 20.7551 9.1193 9.08215 8.9502Z" fill="#B9C3CD"/>
<path d="M28.6525 18.5615C19.3825 21.1121 9.76899 24.4232 2.0509 30.0719V48.7155L28.6525 49.8874V18.5615Z" fill="#F7F9FA"/>
<path d="M2.0509 26.5563V30.0719C9.10137 26.3492 17.7346 23.051 26.737 20.5259C27.1103 20.4213 27.4806 20.7032 27.4806 21.0909V47.5436C27.4806 48.1908 26.9559 48.7155 26.3087 48.7155H2.0509V51.0592H29.8243L30.9962 34.2244L29.8243 16.4868C19.807 18.9929 10.0086 22.5053 2.0509 26.5563Z" fill="#DCE6EB"/>
<path d="M56.7774 13.8564C48.6919 14.2914 38.0855 15.7723 29.8243 19.6945V48.7159L56.7774 49.8877V13.8564Z" fill="#B2E5FB"/>
<path d="M29.8243 16.4869V19.6942C38.3426 17.4926 47.0642 16.0088 54.9862 15.532C55.3225 15.5118 55.6055 15.7806 55.6055 16.1175V42.8562C55.6055 46.0922 52.9822 48.7155 49.7462 48.7155H29.8243V51.0593H57.9493V12.4658C49.342 12.5905 39.4825 14.0706 29.8243 16.4869Z" fill="#91DAFA"/>
<path d="M51.7969 12.8379C51.7969 12.3524 51.4035 11.959 50.918 11.959C50.4325 11.959 50.0391 12.3524 50.0391 12.8379V15.9507L51.7969 15.777V12.8379Z" fill="#DCE6EB"/>
<path d="M50.0391 15.9506V48.7157C50.0391 49.2012 50.4325 49.5946 50.918 49.5946C51.4035 49.5946 51.7969 49.2012 51.7969 48.7157V15.7769C51.2143 15.8299 50.6283 15.8877 50.0391 15.9506ZM43.0079 48.7157C43.0079 49.2012 43.4013 49.5946 43.8868 49.5946C44.3723 49.5946 44.7657 49.2012 44.7657 48.7157V16.6288C44.1814 16.7166 43.5956 16.8079 43.0079 16.9041V48.7157Z" fill="#F7F9FA"/>
<path d="M43.8868 12.7954C43.7714 12.7954 43.6571 12.8181 43.5504 12.8623C43.4438 12.9064 43.3469 12.9712 43.2653 13.0528C43.1836 13.1344 43.1189 13.2313 43.0747 13.338C43.0306 13.4446 43.0079 13.5589 43.0079 13.6743V16.9042L44.7657 16.629V13.6744C44.7657 13.559 44.743 13.4447 44.6988 13.3381C44.6547 13.2314 44.5899 13.1345 44.5083 13.0529C44.4267 12.9713 44.3298 12.9065 44.2232 12.8623C44.1165 12.8181 44.0022 12.7954 43.8868 12.7954Z" fill="#DCE6EB"/>
<path d="M35.9766 48.7157C35.9766 49.2012 36.37 49.5946 36.8555 49.5946C37.341 49.5946 37.7344 49.2012 37.7344 48.7157V17.8721C37.1478 17.991 36.5618 18.1135 35.9766 18.2395V48.7157Z" fill="#F7F9FA"/>
<path d="M36.8555 14.2104C36.7401 14.2104 36.6258 14.2332 36.5192 14.2773C36.4125 14.3215 36.3156 14.3862 36.234 14.4678C36.1524 14.5495 36.0877 14.6464 36.0435 14.753C35.9993 14.8596 35.9766 14.9739 35.9766 15.0894V18.2398L37.7344 17.8724V15.0894C37.7344 14.6038 37.341 14.2104 36.8555 14.2104Z" fill="#DCE6EB"/>
<path d="M58.4608 33.3323C57.2276 32.5943 53.4427 35.2054 50.918 39.0808V39.0786C50.918 34.1928 48.8914 29.5859 47.3833 29.5859C45.8752 29.5859 43.8486 34.1928 43.8486 39.0786V39.0788C41.4539 36.1471 38.5614 34.3549 37.5132 34.9823C36.2191 35.7568 36.85 40.3775 38.3081 44.2882C38.3808 44.483 38.4569 44.6766 38.5364 44.8688C37.1395 43.8959 34.4874 43.1541 33.7299 43.9118C33.1017 44.54 33.6186 46.5964 34.9798 48.7161L52.9082 49.888C52.9081 49.8879 58.4608 39.7368 58.4608 33.3323Z" fill="#AADDB6"/>
<path d="M58.4608 33.332C57.2653 38.3979 54.5845 43.9729 53.1092 46.8171C52.8128 47.3892 52.3648 47.8688 51.8143 48.2036C51.2638 48.5385 50.6319 48.7156 49.9876 48.7157H34.9797C35.5221 49.5599 36.1507 50.3454 36.8556 51.0595H53.6111C53.6111 51.0595 55.8797 47.7149 57.5747 42.4723C58.9264 38.2914 59.7549 34.1064 58.4608 33.332Z" fill="#7FBD93"/>
<path d="M11.4259 33.0439V49.8878L9.08215 48.7159V34.2158L11.4259 33.0439Z" fill="#B2E5FB"/>
<path d="M10.254 34.2158H9.08215V31.8721H12.5978L13.7697 34.2248V48.7159L12.5978 51.0597H9.08215V48.7159H10.254C10.4094 48.7159 10.5585 48.6542 10.6683 48.5443C10.7782 48.4344 10.84 48.2854 10.84 48.13V34.8018C10.84 34.6464 10.7782 34.4973 10.6683 34.3874C10.5585 34.2776 10.4094 34.2158 10.254 34.2158Z" fill="#91DAFA"/>
<path d="M21.9728 33.0439V49.8878L12.5978 48.7159V34.2158L21.9728 33.0439Z" fill="#7E8B96"/>
<path d="M20.215 34.2158H12.5978V31.8721H23.1447V51.0595H12.5978V48.7158H20.215C20.3704 48.7158 20.5194 48.6541 20.6293 48.5442C20.7392 48.4343 20.8009 48.2852 20.8009 48.1298V34.8018C20.8009 34.6464 20.7392 34.4973 20.6293 34.3874C20.5194 34.2776 20.3704 34.2158 20.215 34.2158Z" fill="#5F6C75"/>
<path d="M41.1292 14.9188C29.3757 11.6307 17.5784 9.81982 7.91028 9.81982C7.42477 9.81982 7.03137 9.42643 7.03137 8.94092C7.03137 8.45541 7.42477 8.06201 7.91028 8.06201C17.734 8.06201 29.6995 9.89588 41.6027 13.226C42.0703 13.3568 41.2084 14.941 41.1292 14.9188ZM23.7306 32.7293H8.49622C8.01071 32.7293 7.61731 32.3359 7.61731 31.8504C7.61731 31.3649 8.01071 30.9715 8.49622 30.9715H23.7306C24.2161 30.9715 24.6095 31.3649 24.6095 31.8504C24.6095 32.3359 24.2161 32.7293 23.7306 32.7293Z" fill="#7E8B96"/>
<path d="M0.879861 28.042C0.719788 28.0421 0.562721 27.9985 0.425611 27.9159C0.288501 27.8333 0.176555 27.7148 0.101855 27.5732C0.0479486 27.4712 0.0146753 27.3595 0.00393505 27.2446C-0.00680516 27.1297 0.00519811 27.0137 0.0392593 26.9035C0.0733206 26.7932 0.128773 26.6907 0.202448 26.6018C0.276124 26.513 0.36658 26.4395 0.468651 26.3857C8.33285 22.2332 18.4601 18.4709 28.9848 15.7918C39.8146 13.0349 50.2356 11.5776 59.1211 11.5776C59.6066 11.5776 60 11.971 60 12.4565C60 12.942 59.6066 13.3354 59.1211 13.3354C50.5046 13.3354 39.9558 14.8127 29.4184 17.4952C19.0243 20.1412 9.03457 23.8505 1.28943 27.94C1.16326 28.0069 1.02265 28.0419 0.879861 28.042Z" fill="#5F6C75"/>
<path d="M59.1212 50.1807H29.8243L28.6524 51.0597L29.8243 51.9385H59.1212C59.6067 51.9385 60.0001 51.5451 60.0001 51.0596C60.0001 50.5741 59.6067 50.1807 59.1212 50.1807Z" fill="#AADDB6"/>
<path d="M0.879028 50.1807C0.393521 50.1807 0.00012207 50.5741 0.00012207 51.0596C0.00012207 51.5451 0.393521 51.9385 0.879028 51.9385H29.8243V50.1807H0.879028Z" fill="#F7F9FA"/>
</g>
<defs>
<clipPath id="clip0_6139_5075">
<rect width="60" height="60" fill="white"/>
</clipPath>
</defs>
</svg>
