<svg width="134" height="47" viewBox="0 0 134 47" fill="none" xmlns="http://www.w3.org/2000/svg">
<g clip-path="url(#clip0_6118_6491)">
<mask id="mask0_6118_6491" style="mask-type:luminance" maskUnits="userSpaceOnUse" x="-10" y="-16" width="148" height="190">
<path d="M137.245 -15.2319H-9.85471V173.263H137.245V-15.2319Z" fill="white"/>
</mask>
<g mask="url(#mask0_6118_6491)">
<mask id="mask1_6118_6491" style="mask-type:luminance" maskUnits="userSpaceOnUse" x="-10" y="-16" width="148" height="190">
<path d="M137.245 -15.2319H-9.85471V173.263H137.245V-15.2319Z" fill="white"/>
</mask>
<g mask="url(#mask1_6118_6491)">
<path d="M4.05004 13.6562V24.9969C4.05004 28.2813 4.8913 31.173 8.82597 31.173C12.7606 31.173 13.6019 28.2813 13.6019 24.9969V13.6562H17.5846V25.4348C17.5846 31.0421 14.9287 34.85 8.82597 34.85C2.72326 34.85 0.0697021 31.0421 0.0697021 25.4348V13.6562H4.05004Z" fill="#0461A6"/>
<path d="M21.1227 33.6312V21.8503C21.1227 16.2454 23.7667 12.4351 29.879 12.4351C35.9913 12.4351 38.6377 16.243 38.6377 21.8503V33.6312H34.6549V22.2882C34.6549 19.0038 33.8161 16.1145 29.879 16.1145C25.9419 16.1145 25.1031 19.0038 25.1031 22.2882V33.6312H21.1227Z" fill="#0461A6"/>
<path d="M46.4637 34.1453H42.4834V13.656H46.4637V34.1453ZM47.2161 7.9226C47.2161 8.64281 46.9271 9.33353 46.4128 9.84279C45.8985 10.3521 45.2009 10.6382 44.4736 10.6382C43.7462 10.6382 43.0487 10.3521 42.5343 9.84279C42.02 9.33353 41.7311 8.64281 41.7311 7.9226C41.7311 7.56599 41.802 7.21286 41.9398 6.88339C42.0777 6.55393 42.2797 6.25456 42.5343 6.0024C42.789 5.75024 43.0913 5.55021 43.4241 5.41374C43.7568 5.27727 44.1134 5.20703 44.4736 5.20703C44.8337 5.20703 45.1903 5.27727 45.5231 5.41374C45.8558 5.55021 46.1581 5.75024 46.4128 6.0024C46.6675 6.25456 46.8695 6.55393 47.0073 6.88339C47.1451 7.21286 47.2161 7.56599 47.2161 7.9226Z" fill="#0461A6"/>
<path d="M55.1768 34.1453H51.194V17.3283H49.0284V13.6488H51.194V5.81152H55.1768V13.6488H59.0682V17.3283H55.1768V34.1453Z" fill="#0461A6"/>
<path d="M75.4318 21.5768C74.9511 18.5114 72.9104 16.4527 69.7257 16.4527C66.6298 16.4527 64.3296 18.6423 63.8441 21.5768H75.4318ZM63.623 24.5542C63.6686 28.0575 66.0554 31.3419 69.8579 31.3419C72.9104 31.3419 74.5473 29.8092 76.0519 27.3578L79.4169 29.2404C78.4841 30.9518 77.0964 32.3781 75.4039 33.3647C73.7113 34.3514 71.7785 34.8609 69.8146 34.8381C63.4908 34.8381 59.6426 30.1091 59.6426 24.0663C59.6426 17.7593 63.0485 13.0303 69.7257 13.0303C76.3163 13.0303 79.4121 17.8474 79.4121 23.9354V24.547L63.623 24.5542Z" fill="#0461A6"/>
<path d="M98.0327 19.4755C96.4391 17.681 94.4946 16.7171 92.1055 16.7171C88.2141 16.7171 85.2072 20.1323 85.2072 23.8975C85.2072 28.1029 88.1684 31.1683 92.3699 31.1683C94.6701 31.1683 96.5281 30.1164 98.0327 28.4528V33.4888C96.2798 34.4186 94.3147 34.8858 92.3266 34.8454C86.2215 34.8454 81.2244 30.2045 81.2244 24.0736C81.2244 17.7238 86.1782 13.0376 92.5477 13.0376C94.4033 13.0376 96.4391 13.4755 98.0327 14.3966V19.4755Z" fill="#0461A6"/>
<path d="M105.205 25.9038V30.7685C105.205 32.1132 105.611 33.3579 107.214 33.3579C108.818 33.3579 109.224 32.1132 109.224 30.7685V25.9038H110.26V31.1184C110.26 32.9319 109.123 34.3218 107.214 34.3218C105.306 34.3218 104.167 32.9319 104.167 31.1184V25.9038H105.205Z" fill="#E02227"/>
<path d="M113.139 33.6859C113.145 33.7725 113.132 33.8592 113.102 33.9408C113.072 34.0224 113.026 34.097 112.966 34.1602C112.906 34.2234 112.834 34.2737 112.753 34.3081C112.673 34.3425 112.586 34.3603 112.499 34.3603C112.411 34.3603 112.324 34.3425 112.244 34.3081C112.164 34.2737 112.091 34.2234 112.031 34.1602C111.971 34.097 111.925 34.0224 111.895 33.9408C111.865 33.8592 111.853 33.7725 111.858 33.6859C111.868 33.5244 111.94 33.3728 112.059 33.2619C112.178 33.1511 112.335 33.0894 112.499 33.0894C112.662 33.0894 112.819 33.1511 112.938 33.2619C113.057 33.3728 113.129 33.5244 113.139 33.6859Z" fill="#E02227"/>
<path d="M118.581 27.4603C118.457 27.2177 118.266 27.0155 118.029 26.8779C117.793 26.7403 117.521 26.6731 117.247 26.6844C116.584 26.6844 115.855 27.1342 115.855 27.8554C115.855 28.5003 116.495 28.8383 117.014 29.0454L117.61 29.2834C118.79 29.7427 119.675 30.3877 119.675 31.7657C119.675 33.2627 118.504 34.3361 117.014 34.3361C116.373 34.3336 115.756 34.0967 115.282 33.6709C114.807 33.2452 114.508 32.6607 114.442 32.0299L115.49 31.8085C115.485 32.018 115.523 32.2263 115.601 32.4209C115.68 32.6156 115.797 32.7926 115.946 32.9414C116.095 33.0902 116.272 33.2078 116.468 33.2871C116.664 33.3663 116.874 33.4057 117.086 33.4029C117.297 33.4 117.506 33.3549 117.7 33.2703C117.893 33.1857 118.067 33.0634 118.212 32.9105C118.357 32.7577 118.469 32.5776 118.542 32.3809C118.615 32.1842 118.647 31.9749 118.636 31.7657C118.636 30.8803 117.915 30.4971 117.194 30.202L116.622 29.964C115.661 29.5594 114.81 29.0239 114.81 27.8768C114.81 26.5416 116.012 25.7348 117.261 25.7348C117.7 25.7266 118.132 25.8388 118.51 26.0589C118.888 26.279 119.197 26.5985 119.403 26.9819L118.581 27.4603Z" fill="#E02227"/>
<path d="M122.256 33.6863C122.257 33.8121 122.219 33.9352 122.149 34.04C122.079 34.1448 121.979 34.2266 121.862 34.2751C121.744 34.3235 121.615 34.3365 121.491 34.3122C121.366 34.288 121.251 34.2276 121.161 34.1389C121.071 34.0501 121.01 33.9369 120.985 33.8135C120.96 33.6902 120.973 33.5623 121.021 33.446C121.07 33.3298 121.152 33.2304 121.258 33.1605C121.363 33.0906 121.487 33.0532 121.614 33.0532C121.784 33.0538 121.946 33.1207 122.067 33.2392C122.187 33.3577 122.255 33.5184 122.256 33.6863Z" fill="#E02227"/>
<path d="M127.09 27.8052L125.611 31.1372H128.57L127.09 27.8052ZM125.181 32.0892L124.232 34.1551H123.117L127.09 25.5562L131.065 34.1479H129.95L128.989 32.0821L125.181 32.0892Z" fill="#E02227"/>
<path d="M133.204 33.6863C133.205 33.8121 133.168 33.9352 133.097 34.04C133.027 34.1448 132.927 34.2266 132.81 34.2751C132.693 34.3235 132.564 34.3365 132.439 34.3122C132.314 34.288 132.2 34.2276 132.11 34.1389C132.02 34.0501 131.958 33.9369 131.933 33.8135C131.908 33.6902 131.921 33.5623 131.97 33.446C132.018 33.3298 132.1 33.2304 132.206 33.1605C132.311 33.0906 132.436 33.0532 132.563 33.0532C132.732 33.0538 132.895 33.1207 133.015 33.2392C133.135 33.3577 133.203 33.5184 133.204 33.6863Z" fill="#E02227"/>
<path d="M109.572 16.862C102.39 19.956 101.037 29.8519 101.037 29.8519C101.037 29.8519 98.6336 15.7291 109.572 11.3999V16.862Z" fill="#E02227"/>
<path d="M125.607 5.83078V-0.0454102C125.607 -0.0454102 134.666 2.53212 134.041 15.9338C134.041 15.9338 131.854 7.37777 125.607 5.83078Z" fill="#07A3D8"/>
<path d="M125.607 5.72829C118.838 1.60377 109.572 5.21183 109.572 5.21183V10.8833C109.572 10.8833 118.838 7.27528 125.607 11.3974V5.72829Z" fill="#0C61A7"/>
<path d="M3.49001 46.8715V41.0262H6.06906C6.6514 41.0137 7.22832 41.1394 7.75157 41.3928C8.21709 41.6208 8.60853 41.9738 8.88125 42.4114C9.1461 42.8797 9.28517 43.4074 9.28517 43.9441C9.28517 44.4808 9.1461 45.0086 8.88125 45.4768C8.60943 45.9164 8.21787 46.2711 7.75157 46.5002C7.22795 46.7526 6.65129 46.8782 6.06906 46.8667L3.49001 46.8715ZM4.57643 45.9528H6.01858C6.41711 45.9629 6.81217 45.8771 7.1699 45.7029C7.48227 45.5454 7.74252 45.3026 7.91982 45.0032C8.09345 44.6784 8.18423 44.3164 8.18423 43.9489C8.18423 43.5813 8.09345 43.2194 7.91982 42.8945C7.74159 42.5971 7.48146 42.356 7.1699 42.1996C6.81237 42.0245 6.41731 41.938 6.01858 41.9473H4.57643V45.9528Z" fill="#444747"/>
<path d="M29.7083 45.962H33.0373V46.8711H28.6123V41.0259H32.9171V41.935H29.7083V45.962ZM29.6242 43.4582H32.5566V44.3579H29.6242V43.4582Z" fill="#444747"/>
<path d="M55.232 46.9545C54.7838 46.956 54.3379 46.8894 53.9101 46.7569C53.5448 46.6562 53.2033 46.4847 52.9054 46.2524L53.2851 45.4099C53.5503 45.6094 53.8466 45.7645 54.1624 45.8692C54.5055 45.9913 54.8675 46.0533 55.232 46.0525C55.4859 46.0605 55.7393 46.0267 55.982 45.9525C56.1455 45.9038 56.2915 45.8096 56.4026 45.6812C56.4917 45.5714 56.5393 45.4341 56.5372 45.2932C56.5406 45.212 56.525 45.1311 56.4917 45.0568C56.4583 44.9825 56.4081 44.9168 56.3449 44.8649C56.1968 44.7457 56.0259 44.6575 55.8425 44.6054C55.6382 44.5412 55.4099 44.4817 55.1599 44.4269C54.91 44.3722 54.66 44.3056 54.41 44.2294C54.1716 44.1598 53.9425 44.0624 53.7274 43.939C53.5251 43.8217 53.3538 43.6585 53.2274 43.463C53.0891 43.2307 53.0215 42.9638 53.0328 42.6943C53.0309 42.3853 53.1203 42.0826 53.2899 41.8232C53.4828 41.5407 53.7553 41.3206 54.0735 41.1902C54.4967 41.0174 54.9524 40.9363 55.4099 40.9522C55.7651 40.9516 56.119 40.9964 56.4627 41.0854C56.7848 41.1627 57.0918 41.2921 57.3712 41.4686L57.0275 42.3111C56.7724 42.1594 56.4974 42.0433 56.2103 41.966C55.9467 41.8923 55.6742 41.8538 55.4003 41.8518C55.1497 41.8444 54.8998 41.8815 54.6624 41.9613C54.5008 42.0147 54.3582 42.113 54.2514 42.2445C54.1634 42.3594 54.1169 42.5002 54.1192 42.6443C54.1165 42.7256 54.1322 42.8064 54.165 42.8809C54.1979 42.9554 54.2471 43.0218 54.3091 43.0751C54.4551 43.1935 54.6246 43.2802 54.8066 43.3298C55.0109 43.3916 55.2416 43.4511 55.494 43.5083C55.7464 43.5654 55.9964 43.632 56.2488 43.7058C56.4861 43.773 56.7145 43.8681 56.929 43.989C57.1329 44.1034 57.3041 44.2671 57.4265 44.465C57.5615 44.695 57.6274 44.9584 57.6164 45.2242C57.6187 45.531 57.5292 45.8316 57.3592 46.0882C57.1653 46.3706 56.892 46.5907 56.5732 46.7212C56.1478 46.8922 55.691 46.9732 55.232 46.9592" fill="#444747"/>
<path d="M80.2462 41.0308H79.1501V46.8713H80.2462V41.0308Z" fill="#444747"/>
<path d="M104.53 46.9544C104.097 46.9592 103.668 46.8842 103.263 46.7331C102.889 46.5926 102.546 46.3798 102.256 46.1072C101.969 45.8396 101.742 45.5153 101.59 45.1552C101.273 44.3847 101.273 43.5219 101.59 42.7514C101.743 42.3912 101.971 42.0668 102.258 41.7994C102.552 41.5268 102.898 41.3141 103.275 41.1735C103.681 41.0224 104.112 40.9473 104.546 40.9521C105.009 40.9448 105.468 41.0256 105.9 41.1901C106.29 41.3456 106.637 41.5903 106.914 41.9041L106.224 42.5729C106.014 42.3559 105.762 42.1844 105.481 42.0693C105.201 41.9542 104.9 41.8979 104.597 41.9041C104.304 41.9009 104.013 41.9526 103.739 42.0564C103.484 42.1496 103.252 42.2938 103.056 42.4801C102.864 42.6643 102.713 42.8865 102.614 43.1322C102.507 43.3944 102.454 43.6752 102.458 43.958C102.454 44.2378 102.507 44.5154 102.614 44.7744C102.714 45.0216 102.865 45.2455 103.057 45.4323C103.249 45.619 103.478 45.7645 103.729 45.8597C104.004 45.9624 104.296 46.0132 104.59 46.0096C104.878 46.0106 105.163 45.9639 105.436 45.8715C105.724 45.7709 105.989 45.6139 106.215 45.4098L106.839 46.219C106.519 46.4686 106.155 46.6567 105.765 46.7736C105.365 46.8969 104.949 46.9603 104.53 46.9616M105.801 46.0762V43.8819H106.839V46.2095L105.801 46.0762Z" fill="#444747"/>
<path d="M125.95 46.8713V41.0308H126.852L130.551 45.5266H130.104V41.0308H131.19V46.8713H130.289L126.59 42.3731H127.037V46.8713H125.95Z" fill="#444747"/>
</g>
</g>
</g>
<defs>
<clipPath id="clip0_6118_6491">
<rect width="134" height="47" fill="white"/>
</clipPath>
</defs>
</svg>
