<svg width="20" height="20" viewBox="0 0 20 20" fill="none" xmlns="http://www.w3.org/2000/svg">
<path d="M12.5495 8.74992C12.7794 8.49244 12.7571 8.09734 12.4996 7.86745C12.2421 7.63755 11.847 7.65992 11.6171 7.9174L9.10714 10.7286L8.38288 9.9174C8.15298 9.65992 7.75789 9.63755 7.50041 9.86745C7.24293 10.0973 7.22056 10.4924 7.45046 10.7499L8.64093 12.0833C8.75951 12.2161 8.9291 12.292 9.10714 12.292C9.28518 12.292 9.45478 12.2161 9.57335 12.0833L12.5495 8.74992Z" fill="#FFC107"/>
<path fill-rule="evenodd" clip-rule="evenodd" d="M10 1.04199C9.21873 1.04199 8.47277 1.29748 7.26949 1.70959L6.66329 1.91711C5.42885 2.33966 4.47617 2.66576 3.79419 2.94281C3.45065 3.08238 3.15531 3.21755 2.91748 3.35566C2.68862 3.48858 2.45902 3.65436 2.30303 3.87661C2.14884 4.09629 2.06911 4.36636 2.01901 4.62634C1.96693 4.89662 1.93552 5.22085 1.91525 5.59313C1.875 6.3323 1.875 7.34492 1.875 8.65835V9.99312C1.875 15.0773 5.71502 17.5149 7.99861 18.5125L8.02119 18.5223C8.30436 18.6461 8.57051 18.7624 8.87634 18.8407C9.19922 18.9233 9.54228 18.9587 10 18.9587C10.4577 18.9587 10.8008 18.9233 11.1237 18.8407C11.4295 18.7624 11.6956 18.6461 11.9788 18.5223L12.0014 18.5125C14.285 17.5149 18.125 15.0773 18.125 9.99312V8.65851C18.125 7.345 18.125 6.33232 18.0847 5.59313C18.0645 5.22085 18.0331 4.89662 17.981 4.62634C17.9309 4.36636 17.8512 4.09629 17.697 3.87661C17.541 3.65436 17.3114 3.48858 17.0825 3.35566C16.8447 3.21755 16.5493 3.08238 16.2058 2.94281C15.5238 2.66576 14.5711 2.33966 13.3367 1.9171L12.7305 1.70959C11.5272 1.29748 10.7813 1.04199 10 1.04199ZM7.56718 2.92891C8.91262 2.46836 9.45188 2.29199 10 2.29199C10.5481 2.29199 11.0874 2.46836 12.4328 2.92891L12.9102 3.0923C14.1707 3.52377 15.0899 3.8387 15.7353 4.1009C16.0575 4.23177 16.2909 4.34145 16.4548 4.4366C16.5356 4.48358 16.5914 4.52234 16.6286 4.5526C16.6601 4.57823 16.6722 4.59276 16.6739 4.59489C16.6755 4.59749 16.6859 4.6148 16.7005 4.65577C16.7171 4.70253 16.7356 4.76957 16.7536 4.86287C16.79 5.05174 16.8175 5.31117 16.8366 5.66109C16.8748 6.36208 16.875 7.3406 16.875 8.68087V9.99312C16.875 14.3057 13.6501 16.4282 11.501 17.367C11.1914 17.5022 11.0127 17.5788 10.8137 17.6297C10.6236 17.6784 10.3917 17.7087 10 17.7087C9.60833 17.7087 9.3764 17.6784 9.18633 17.6297C8.98732 17.5788 8.80856 17.5022 8.49899 17.367C6.34991 16.4282 3.125 14.3057 3.125 9.99312V8.68087C3.125 7.3406 3.12523 6.36208 3.1634 5.66109C3.18245 5.31117 3.21003 5.05174 3.24643 4.86287C3.26441 4.76957 3.28287 4.70253 3.29952 4.65577C3.31411 4.61483 3.32446 4.59751 3.32608 4.5949C3.3278 4.59278 3.33983 4.57825 3.37139 4.5526C3.40861 4.52234 3.46435 4.48358 3.54524 4.4366C3.70908 4.34145 3.9425 4.23177 4.26466 4.1009C4.91008 3.8387 5.82934 3.52377 7.08984 3.0923L7.56718 2.92891Z" fill="#FFC107"/>
</svg>
